<svg width="285" height="112" viewBox="0 0 285 112" fill="none" xmlns="http://www.w3.org/2000/svg">
<path opacity="0.1" d="M236.282 -172.371L238.186 -175H218.243L220.003 -173.674L265.945 -139.096L265.865 -139.06L252.265 -132.96L197.14 -175L182.684 -175L200.404 -161.49L203.9 -158.826L127.327 -100.479L131.743 -97.2348L165.053 -122.479C168.189 -118.518 174.581 -110.434 181.773 -101.286L132.415 -79.1125L62.8979 -129.59L77.3932 -150.711L108.968 -175H100.328L72.2655 -153.442L58.1941 -132.84C54.8423 -135.439 49.9705 -140.225 50.0825 -145.483C50.099 -147.68 50.8526 -149.84 52.2744 -151.763C61.554 -164.86 61.658 -165.404 63.1459 -167.621C63.9866 -169.159 64.3766 -170.813 64.2898 -172.473C64.2831 -173.318 64.2029 -174.162 64.0499 -175H57.7781C57.983 -174.166 58.0848 -173.32 58.0821 -172.473C58.1306 -171.53 57.9629 -170.588 57.5862 -169.688C55.9862 -167.298 56.0822 -167.059 46.7786 -153.926C44.8897 -151.334 43.8894 -148.434 43.8668 -145.483C44.0348 -137.202 51.4184 -131.143 55.2262 -128.538L38.939 -104.722L-7.6269 -123.017L23.7957 -175H14.7001L-69.0001 -36.3789L-69.0001 -21.3756L-56.8887 -41.4279L-21.8503 -30.1171L-27.074 -14.5103L-69.0001 1.40724L-69.0001 18.2808L47.7306 -34.2996L56.2342 -37.5321L64.4098 -28.0916L61.01 4.00639L37.675 -2.32118L35.5551 2.02866L60.506 8.80435L59.1701 21.4356L-69.0001 23.8077L-69.0001 31.5215L58.2581 29.1315L52.0024 78.5152L-69.0001 53.9159L-69.0001 58.696L69.0736 86.7787C68.727 88.8859 68.3857 90.9652 68.0497 93.0166C67.6764 95.3031 67.311 97.5457 66.9537 99.7445C65.0018 111.784 63.3459 122.378 62.2339 130.032C59.5461 148.626 53.4343 166.097 48.0346 178.872C45.3227 185.265 42.7868 190.482 40.9309 194.085C39.075 197.688 37.939 199.617 37.939 199.623C37.939 199.629 34.1872 205.933 28.0595 216.306L28.2115 215.374L-69.0001 206.357L-69.0001 211.018L-24.4581 215.17L-26.3301 254.259L-69.0001 246.964L-69.0001 251.708L0.244743 263.568C-5.26701 272.961 -11.0667 282.856 -16.8985 292.846L-48.713 280.794L-51.5129 284.923L-19.4024 297.082C-22.4502 302.311 -25.4981 307.551 -28.522 312.749L-69.0001 299.598L-69.0001 304.641L-55.1447 309.14L-63.8244 325.177L-58.0806 326.91L-49.465 310.986L-30.9618 316.991C-34.5057 323.098 -37.9775 329.121 -41.3614 334.976H-27.866L-26.994 333.476L-23.5542 334.994H-11.4027L-24.5461 329.198C-15.5785 313.699 -6.08297 297.411 2.99662 281.882C7.38842 274.383 11.6842 267.064 15.796 260.091L60.594 267.751L52.2344 327.77L4.00457 309.116L2.10866 311.859L51.8744 331.086L51.6984 334.958H55.7942L55.8982 332.658L61.8419 334.958H70.8255L56.1702 329.294L59.994 301.809L127.343 326.306L123.255 334.994H127.623L131.079 327.663L151.27 334.994H160.717L132.463 324.735L148.806 290.038L199.548 303.93L180.989 335H185.516L192.588 323.11L195.66 324.263L224.171 334.976H233.386L197.388 321.467L194.252 320.272L203.428 304.904L256.457 317.451L246.186 334.976H252.953L262.401 318.844L274.584 321.723C273.11 326.201 271.326 330.618 269.241 334.958H275.8C277.696 330.811 279.304 326.82 280.504 323.122L284.944 324.173L284.944 320.929L264.065 315.993L271.744 302.896L284.944 306.362V303.093L273.408 300.064L282.864 283.931L284.944 284.529L284.944 266.329L280.016 276.6L257.089 270.308L284.968 207.403L284.968 192.668L251.305 268.713L243.066 266.454L262.721 224.36L256.865 222.836L237.242 264.853L229.522 262.738L234.186 165.727L285 180.067V176.751L234.346 162.477V162.297L239.394 127.104L239.498 126.351L235.394 126.023L235.346 126.333L230.322 161.347L179.317 146.977L186.124 121.081L182.076 120.484L173.981 151.285L134.991 141.893L134.231 141.815L140.014 115.901L135.943 115.393L130.143 141.391L115.792 139.885L115.896 139.532L120.695 111.73L116.607 111.33L111.808 139.042L111.688 139.449L91.6886 137.352L97.9603 110.249L93.8885 109.723L78.0892 178.185L75.3373 222.866L74.2654 226.039L40.4109 218.361C45.9387 209.01 49.2825 203.394 49.2905 203.37C49.4185 203.107 68.9056 169.91 74.5614 131.072C75.6413 123.597 77.2653 113.26 79.1692 101.495C79.5211 99.3084 79.8838 97.0757 80.2571 94.7972C80.5878 92.7776 80.9238 90.7282 81.2651 88.6489C97.1763 90.776 130.343 95.078 161.133 98.1612C203.084 102.344 263.073 114.33 283.8 120.382L284.976 120.723V115.77C265.593 110.279 219.291 100.868 179.941 95.6815L188.492 64.5575L166.781 62.6694L174.989 42.181L174.517 26.9924L193.052 26.6518L186.388 56.527L192.5 57.2859L199.364 26.5323L231.818 25.9348L208.139 89.4555L214.107 90.6983L238.266 25.8034L261.377 25.3732L243.186 67.9155H243.138L231.698 94.7733L231.37 95.5381L237.266 96.9423L247.218 73.6754L284.96 82.2556L284.96 77.4218L268.105 73.5619L249.113 69.2419L249.241 68.9492L251.641 63.2669L267.905 25.2297L284.944 24.9131V17.2232L280.376 17.3068L280.752 8.37415L282.04 5.73915L284.952 6.14546V1.43712L284.152 1.32956L284.952 -0.241867V-4.49013L280.952 -5.57161L274.552 7.5018L274.184 17.3965L257.025 17.7132L239.322 2.11827L272.984 -54.573L284.984 -50.6115V-55.6724L275.52 -58.8033L284.984 -74.7447L284.984 -86.157L273.856 -67.4133L269.233 -68.0467L282.032 -89.037L276.432 -90.961L263.249 -69.403L241.082 -79.2678L237.882 -75.2944L260.625 -65.1727L247.786 -44.1047C237.234 -48.8847 223.123 -56.4491 217.955 -63.7267C214.603 -68.3395 207.827 -77.1407 200.356 -86.7665L262.985 -113.72L284.936 -96.9241L284.936 -107.966L259.705 -127.295L273.384 -133.45L284.944 -124.648V-135.666L282.544 -137.501L284.944 -138.558V-147.515L275.064 -143.177L236.282 -172.371ZM2.77263 259.224L-21.0743 255.149L-20.2023 255.203L-18.3144 215.768L25.9556 219.885C19.7959 230.269 11.7322 243.976 2.77263 259.224ZM146.286 286.052L126.991 280.765L125.575 283.662L144.942 288.962L128.743 323.361L88.7447 308.829L96.4964 296.754L92.7766 295.421L84.9929 307.485L60.45 298.576L64.5938 268.916L77.6172 273.583L76.1213 279.103C75.335 280.207 74.9256 281.438 74.9294 282.688C74.8814 285.222 76.7133 288.58 82.561 291.49C88.1608 294.298 97.3203 296.921 112.624 298.863L106.376 315.199L110.376 316.047L117.239 298.122L130.279 274.323L134.367 266.873L134.239 266.831L153.03 271.76L149.502 279.253L146.286 286.052ZM79.0892 282.694C79.087 282.123 79.2253 281.556 79.4972 281.021C79.574 280.871 79.6622 280.723 79.7611 280.579C79.8251 280.496 79.8331 280.496 79.8251 280.496L80.0571 280.233L82.825 269.902C84.0471 268.28 85.5213 266.772 87.2168 265.409C92.4406 261.226 98.4163 260.085 104.016 260.031C107.809 260.067 111.568 260.568 115.144 261.513C116.739 261.912 118.293 262.4 119.791 262.971L119.935 263.031L130.503 265.803L118.111 288.383L113.992 295.893C98.6243 293.993 89.7687 291.382 84.9129 288.92C79.8651 286.363 79.1052 284.188 79.0652 282.688L79.0892 282.694ZM201.292 301.098L150.19 287.116L153.39 280.245L156.91 272.776L201.596 284.481L210.291 286.763L201.292 301.098ZM118.911 233.693L126.111 206.154L157.238 217.662L143.31 240.266L142.51 241.544L118.279 236.047L118.911 233.693ZM114.992 232.612L114.328 235.121L94.1925 230.55L95.6244 227.389L108.256 199.498L122.351 204.708L114.992 232.612ZM193.028 226.571L201.66 208.52L227.258 217.794L227.594 217.28L226.602 238.103L193.028 226.571ZM226.419 241.461L225.515 260.354L177.661 249.503L166.189 246.886L166.357 246.444L175.029 223.786L226.419 241.461ZM189.252 225.298L176.261 220.835L184.516 202.312L197.908 207.164L189.252 225.298ZM172.453 219.538L162.269 216.037L166.989 195.961L180.757 200.95L172.453 219.538ZM158.398 214.645L126.991 202.993L132.095 183.58L133.815 183.921L163.157 194.557L158.398 214.645ZM147.198 241.311L160.989 218.989L171.237 222.508L162.437 245.422L162.213 246.02L146.47 242.435L147.198 241.311ZM164.621 251.391L215.347 262.893L224.099 264.877L212.043 283.997L203.364 281.721L158.19 269.836L164.621 251.391ZM258.185 314.613L205.227 302.066L214.187 287.815L265.889 301.384L258.185 314.613ZM277.096 282.348L267.601 298.546L216.003 285.001L226.402 268.45L277.096 282.348ZM178.493 150.042L230.082 164.58L227.682 214.537L203.156 205.61L218.987 179.511L215.227 178.239L199.428 204.29L185.98 199.414L202.452 172.837L198.732 171.553L182.292 198.076L167.749 192.806L171.669 176.076L178.493 150.042ZM133.535 144.856L134.063 144.91L173.157 154.327L169.037 170.017L128.655 166.719L133.535 144.856ZM91.0326 140.393L110.84 142.472L104.28 165.177L108.28 165.829L114.896 142.896L129.399 144.42L123.799 169.426L168.173 173.052L167.533 175.484L163.805 191.384L135.183 181.005L83.921 170.8L91.0326 140.393ZM82.233 178.537L83.313 173.865L128.111 182.786L123.175 201.577L90.7446 189.585L80.2411 211.048L82.233 178.537ZM79.4732 223.314L79.7531 218.726L80.7371 218.995L93.0245 193.899L104.504 198.142L91.7046 226.368L90.1927 229.654L79.9371 227.33L78.2172 226.941L79.4732 223.314ZM76.7293 231.429L78.0972 231.739L160.717 250.477L154.318 268.82L121.599 260.234C116.141 258.176 110.129 257.069 104.016 256.996C97.2446 256.916 90.6894 258.776 85.6969 262.194C83.0019 264.041 80.7365 266.21 78.9932 268.611L78.8412 268.82V268.904L65.6178 264.166L67.7937 257.719L70.8976 248.553L76.7293 231.429ZM72.7775 230.532L61.714 263.174L18.3399 255.801C24.7396 244.944 30.5554 235.073 35.3872 226.9L37.899 222.657L72.7775 230.532ZM169.469 -126.005L208.235 -155.539L243.202 -128.891L187.084 -103.682C179.109 -113.81 172.117 -122.641 169.469 -126.005ZM134.543 -71.082L172.197 -43.2921L144.518 19.8343L111.8 20.4318L114.744 -5.9062L98.0803 -10.746L99.2963 -17.7966C100.955 -25.4857 99.2733 -33.3696 94.4965 -40.2926C93.1445 -42.0851 90.4967 -45.4909 87.1608 -49.7511L134.543 -71.082ZM108.184 -2.8709L105.568 20.5573L92.6566 20.7963C94.4805 10.1009 96.0884 0.77388 97.2643 -6.04364L108.184 -2.8709ZM59.946 -125.264L126.919 -76.6507L81.881 -56.4192C67.2977 -74.8284 46.1947 -101.089 46.1947 -101.119L45.2987 -102.23L44.4347 -102.57L59.946 -125.264ZM-54.3448 -45.6642L-12.7467 -114.574L24.3477 -99.9893L-19.3304 -34.3654L-54.3448 -45.6642ZM-19.7624 -17.3066L-16.0905 -28.2708L-2.49113 -23.8732L-19.7624 -17.3066ZM42.7468 -41.0634L4.70054 -26.6038L-13.6426 -32.525L29.8434 -97.8383L36.4431 -95.2451C39.179 -91.8393 47.8186 -81.0723 57.0502 -69.5046C61.402 -64.0613 65.8498 -58.4269 69.9456 -53.3122L42.7468 -41.0634ZM69.8336 82.1719L58.0661 79.7819L64.4658 29.0478L78.7852 28.7789C75.9613 45.515 72.7535 64.5336 69.8416 82.1719H69.8336ZM80.1211 21.0353L65.3858 21.3101L70.7455 -29.2866L61.778 -39.6413L76.3693 -45.1862C79.7291 -40.92 82.345 -37.556 83.625 -35.8292C86.7368 -31.6467 87.5288 -26.9742 87.5128 -23.6342C87.519 -22.5743 87.4442 -21.515 87.2888 -20.4614C87.2328 -20.085 87.1768 -19.8101 87.1368 -19.6309C87.0968 -19.4516 87.0888 -19.4457 87.0968 -19.4457L87.0488 -19.2843V-19.135C87.0488 -19.135 84.0729 -2.03438 80.1291 21.0353H80.1211ZM82.009 84.0362C84.2569 70.431 86.6808 55.9534 88.9927 42.3244C89.7927 37.6041 90.5927 32.9913 91.3286 28.5459L104.696 28.2949L98.2403 86.1633C91.7926 85.3327 86.2728 84.6038 82.017 84.0362H82.009ZM160.517 62.1137H160.333L150.862 86.2469V86.3425L156.798 87.657V87.6032L164.973 67.1746L181.061 68.5727L173.861 94.9107C169.797 94.4148 165.821 93.9607 161.989 93.5783C142.038 91.5826 121.031 89.0671 104.392 86.9639L110.936 28.1516L157.334 27.2852L155.382 39.8327L147.71 59.3174L153.654 60.6259L161.469 40.7649L163.581 27.1776L167.773 27.0999L168.285 27.1776L168.733 41.5177L160.517 62.1137ZM249.073 17.8984L151.078 19.7208L177.101 -39.6353L218.107 -9.36577L249.073 17.8984ZM266.569 -63.7088L271.256 -63.0336L257.561 -39.964C256.849 -40.2448 256.041 -40.5615 255.113 -40.9439L253.153 -41.7565L266.569 -63.7088ZM250.569 -37.5381C252.337 -36.7972 253.857 -36.1937 255.033 -35.7456L234.866 -1.77745L230.866 -5.3087L250.569 -37.5381ZM212.507 -61.5219C217.971 -54.095 229.226 -47.6061 239.146 -42.7125C241.242 -41.6848 243.282 -40.7407 245.194 -39.8803L226.435 -9.20442L222.659 -12.5325L189.532 -36.9764L203.932 -47.0504L199.7 -50.4263L185.132 -40.2328L174.677 -47.9466L194.676 -62.8842L190.292 -66.1586L170.269 -51.203L140.022 -73.5318L186.988 -94.6297L191.788 -88.4515L174.989 -81.1918L178.077 -77.1825L194.988 -84.4601C202.444 -74.8403 209.211 -66.051 212.507 -61.5219ZM197.196 -90.7519L192.3 -97.0018L250.617 -123.196L258.553 -117.126L197.196 -90.7519Z" fill="#FF5800"/>
</svg>
