<svg width="311" height="411" viewBox="0 0 311 411" fill="none" xmlns="http://www.w3.org/2000/svg">
<path d="M27.5785 210.498C27.5785 211.674 27.5785 212.85 27.5785 214.026C10.5619 181.687 0 138.176 0 97.0172C0 46.4506 19.3636 2.35193 51.6364 2.35193C71.5869 2.35193 90.9507 18.8154 105.62 44.0987C61.025 92.9013 27.5785 161.695 27.5785 210.498ZM172.513 411C129.091 411 80.3887 350.438 61.6117 292.228C97.4052 333.386 156.083 361.609 206.546 372.781C204.199 398.064 191.877 411 172.513 411ZM247.62 361.021C169.579 361.021 44.0084 294.579 44.0084 211.086C44.0084 129.944 140.24 0 214.761 0C244.1 0 261.703 21.1674 261.703 55.8584C261.703 124.064 206.546 191.682 196.571 203.442C204.786 206.382 310.993 255.185 310.993 316.335C311.579 349.85 276.959 361.021 247.62 361.021Z" fill="#FF5800"/>
</svg>
